<svg xmlns="http://www.w3.org/2000/svg" width="1200" height="520" viewBox="0 0 1200 520" role="img" aria-labelledby="title desc">
  <title id="title">Quantum error correction loop</title>
  <desc id="desc">Qubit arrows, syndrome extraction, decoder, and recovery loop for quantum error correction.</desc>
  <rect width="1200" height="520" fill="#f8f9fa"/>
  <g transform="translate(30,40)">
    <rect x="0" y="40" width="250" height="290" rx="26" fill="#ffffff" stroke="#d8dde3" stroke-width="3"/>
    <rect x="320" y="40" width="220" height="290" rx="26" fill="#fff8ee" stroke="#BF5700" stroke-width="3"/>
    <rect x="610" y="40" width="240" height="290" rx="26" fill="#eef4ff" stroke="#4c72b0" stroke-width="3"/>
    <rect x="920" y="40" width="220" height="290" rx="26" fill="#ffffff" stroke="#5f6b76" stroke-width="3"/>
    <text x="125" y="88" text-anchor="middle" font-family="Lato, sans-serif" font-size="28" font-weight="700" fill="#222">Physical qubits</text>
    <text x="430" y="88" text-anchor="middle" font-family="Lato, sans-serif" font-size="28" font-weight="700" fill="#8c3f00">Syndrome</text>
    <text x="730" y="88" text-anchor="middle" font-family="Lato, sans-serif" font-size="28" font-weight="700" fill="#2c4f8c">Decoder</text>
    <text x="1030" y="88" text-anchor="middle" font-family="Lato, sans-serif" font-size="28" font-weight="700" fill="#333">Recovery</text>

    <g stroke="#333F48" stroke-width="5" stroke-linecap="round">
      <line x1="70" y1="165" x2="105" y2="145"/><polygon points="105,145 94,145 100,156" fill="#333F48" stroke="none"/>
      <line x1="150" y1="165" x2="183" y2="186"/><polygon points="183,186 177,175 171,186" fill="#333F48" stroke="none"/>
      <line x1="115" y1="245" x2="143" y2="223"/><polygon points="143,223 132,224 138,233" fill="#333F48" stroke="none"/>
      <line x1="185" y1="255" x2="154" y2="281"/><polygon points="154,281 165,279 159,271" fill="#333F48" stroke="none"/>
    </g>
    <g fill="#BF5700">
      <circle cx="70" cy="165" r="13"/><circle cx="115" cy="245" r="13"/><circle cx="150" cy="165" r="13"/><circle cx="185" cy="255" r="13"/>
    </g>
    <text x="125" y="295" text-anchor="middle" font-family="Lato, sans-serif" font-size="21" fill="#444">many physical qubits</text>

    <text x="430" y="170" text-anchor="middle" font-family="Lato, sans-serif" font-size="24" font-weight="700" fill="#8c3f00">measure stabilizer checks</text>
    <text x="430" y="216" text-anchor="middle" font-family="Lato, sans-serif" font-size="22" fill="#555">extract syndrome bits</text>
    <text x="430" y="280" text-anchor="middle" font-family="Lato, sans-serif" font-size="22" fill="#555">do not read the logical state directly</text>

    <text x="730" y="168" text-anchor="middle" font-family="Lato, sans-serif" font-size="24" font-weight="700" fill="#2c4f8c">infer an equivalent recovery</text>
    <text x="730" y="222" text-anchor="middle" font-family="Lato, sans-serif" font-size="22" fill="#555">use local evidence</text>
    <text x="730" y="254" text-anchor="middle" font-family="Lato, sans-serif" font-size="22" fill="#555">and global structure</text>
    <text x="730" y="286" text-anchor="middle" font-family="Lato, sans-serif" font-size="22" fill="#555">to pick a correction</text>

    <text x="1030" y="182" text-anchor="middle" font-family="Lato, sans-serif" font-size="24" font-weight="700" fill="#333">same logical class</text>
    <text x="1030" y="236" text-anchor="middle" font-family="Lato, sans-serif" font-size="22" fill="#555">exact microscopic error</text>
    <text x="1030" y="268" text-anchor="middle" font-family="Lato, sans-serif" font-size="22" fill="#555">may remain ambiguous</text>

    <g stroke="#66707a" stroke-width="8" fill="none" stroke-linecap="round">
      <path d="M252 185 H308"/><path d="M542 185 H598"/><path d="M852 185 H908"/>
    </g>
    <g fill="#66707a">
      <polygon points="308,185 292,176 292,194"/>
      <polygon points="598,185 582,176 582,194"/>
      <polygon points="908,185 892,176 892,194"/>
    </g>
  </g>
</svg>
