<svg xmlns="http://www.w3.org/2000/svg" width="1200" height="560" viewBox="0 0 1200 560" role="img" aria-labelledby="title desc">
  <title id="title">Quantum error correction loop</title>
  <desc id="desc">A patch of physical qubits produces syndrome bits through stabilizer checks, a decoder maps syndrome to a recovery, and the output aims to preserve the logical state.</desc>
  <rect width="1200" height="560" fill="#f8f9fa"/>
  <g transform="translate(24,36)">
    <rect x="0" y="40" width="260" height="330" rx="28" fill="#ffffff" stroke="#d8dde3" stroke-width="3"/>
    <rect x="300" y="40" width="250" height="330" rx="28" fill="#fff8ee" stroke="#BF5700" stroke-width="3"/>
    <rect x="590" y="40" width="260" height="330" rx="28" fill="#eef4ff" stroke="#4c72b0" stroke-width="3"/>
    <rect x="890" y="40" width="250" height="330" rx="28" fill="#ffffff" stroke="#5f6b76" stroke-width="3"/>

    <text x="130" y="86" text-anchor="middle" font-family="Lato, sans-serif" font-size="28" font-weight="700" fill="#222">Physical qubits</text>
    <text x="425" y="86" text-anchor="middle" font-family="Lato, sans-serif" font-size="28" font-weight="700" fill="#8c3f00">Syndrome extraction</text>
    <text x="720" y="86" text-anchor="middle" font-family="Lato, sans-serif" font-size="28" font-weight="700" fill="#2c4f8c">Decoder</text>
    <text x="1015" y="86" text-anchor="middle" font-family="Lato, sans-serif" font-size="28" font-weight="700" fill="#333">Output</text>

    <g fill="#BF5700">
      <circle cx="72" cy="170" r="12"/><circle cx="126" cy="150" r="12"/><circle cx="176" cy="185" r="12"/><circle cx="95" cy="245" r="12"/><circle cx="152" cy="252" r="12"/>
    </g>
    <g stroke="#333F48" stroke-width="5" stroke-linecap="round">
      <line x1="72" y1="170" x2="126" y2="150"/><line x1="126" y1="150" x2="176" y2="185"/><line x1="72" y1="170" x2="95" y2="245"/><line x1="95" y1="245" x2="152" y2="252"/>
    </g>
    <g stroke="#4f6fad" stroke-width="4" fill="#e8f0ff">
      <rect x="58" y="306" width="42" height="42" rx="10"/><rect x="110" y="306" width="42" height="42" rx="10"/><rect x="162" y="306" width="42" height="42" rx="10"/>
    </g>
    <text x="130" y="329" text-anchor="middle" font-family="Lato, sans-serif" font-size="17" font-weight="700" fill="#4f6fad">local check pattern</text>

    <g stroke="#BF5700" stroke-width="4" fill="#fff1d9">
      <rect x="350" y="138" width="54" height="54" rx="14"/><rect x="446" y="138" width="54" height="54" rx="14"/>
      <line x1="377" y1="192" x2="377" y2="252"/><line x1="473" y1="192" x2="473" y2="252"/>
    </g>
    <g fill="#333">
      <circle cx="329" cy="126" r="7"/><circle cx="377" cy="126" r="7"/><circle cx="425" cy="126" r="7"/><circle cx="473" cy="126" r="7"/><circle cx="521" cy="126" r="7"/>
      <circle cx="329" cy="224" r="7"/><circle cx="377" cy="224" r="7"/><circle cx="425" cy="224" r="7"/><circle cx="473" cy="224" r="7"/><circle cx="521" cy="224" r="7"/>
    </g>
    <g fill="#8c3f00" font-family="Source Code Pro, monospace" font-size="24" font-weight="700">
      <text x="377" y="295" text-anchor="middle">0</text>
      <text x="473" y="295" text-anchor="middle">1</text>
    </g>
    <text x="425" y="337" text-anchor="middle" font-family="Lato, sans-serif" font-size="19" fill="#555">which parity checks flipped?</text>

    <g fill="#eef4ff" stroke="#4c72b0" stroke-width="3">
      <rect x="664" y="128" width="112" height="112" rx="22"/>
    </g>
    <g stroke="#4c72b0" stroke-width="5" stroke-linecap="round">
      <line x1="690" y1="165" x2="750" y2="165"/>
      <line x1="690" y1="195" x2="728" y2="195"/>
      <line x1="690" y1="225" x2="738" y2="225"/>
    </g>
    <text x="720" y="290" text-anchor="middle" font-family="Lato, sans-serif" font-size="22" font-weight="700" fill="#2c4f8c">input: syndrome bits</text>
    <text x="720" y="324" text-anchor="middle" font-family="Lato, sans-serif" font-size="18" fill="#555">output: candidate recovery</text>

    <g fill="#BF5700">
      <circle cx="958" cy="170" r="12"/><circle cx="1012" cy="150" r="12"/><circle cx="1062" cy="185" r="12"/><circle cx="981" cy="245" r="12"/><circle cx="1038" cy="252" r="12"/>
    </g>
    <g stroke="#333F48" stroke-width="5" stroke-linecap="round">
      <line x1="958" y1="170" x2="1012" y2="150"/><line x1="1012" y1="150" x2="1062" y2="185"/><line x1="958" y1="170" x2="981" y2="245"/><line x1="981" y1="245" x2="1038" y2="252"/>
    </g>
    <g fill="#2c7a4b">
      <circle cx="1078" cy="230" r="15"/>
      <path d="M1070 230 l6 6 l12 -14" fill="none" stroke="#fff" stroke-width="4" stroke-linecap="round" stroke-linejoin="round"/>
    </g>
    <text x="1015" y="318" text-anchor="middle" font-family="Lato, sans-serif" font-size="22" font-weight="700" fill="#333">recovered logical state</text>
    <text x="1015" y="350" text-anchor="middle" font-family="Lato, sans-serif" font-size="18" fill="#555">same logical class, even if the microscopic error is ambiguous</text>

    <g stroke="#66707a" stroke-width="8" fill="none" stroke-linecap="round">
      <path d="M262 205 H288"/><path d="M552 205 H578"/><path d="M852 205 H878"/>
    </g>
    <g fill="#66707a">
      <polygon points="288,205 272,196 272,214"/>
      <polygon points="578,205 562,196 562,214"/>
      <polygon points="878,205 862,196 862,214"/>
    </g>
  </g>
</svg>
